<svg xmlns="http://www.w3.org/2000/svg" width="512" height="512" viewBox="0 0 512 512">
  <!-- Generated by tools/generate_icon.py -->
  <defs>
    <radialGradient id="glow" gradientUnits="userSpaceOnUse"
        cx="256" cy="369.78" r="512">
      <stop offset="0" stop-color="#26805F"/>
      <stop offset="1" stop-color="#0B3526"/>
    </radialGradient>
  </defs>
  <rect width="512" height="512" fill="url(#glow)"/>
    <path fill="#A8E6C8" fill-opacity="1.00" d="M177.93,356.46 a24.65,24.65 0 1 0 49.3,0 a24.65,24.65 0 1 0 -49.3,0 Z"/>
    <path fill="#A8E6C8" fill-opacity="0.91" d="M129.47,303.18 a22.99,22.99 0 1 0 45.99,0 a22.99,22.99 0 1 0 -45.99,0 Z"/>
    <path fill="#A8E6C8" fill-opacity="0.82" d="M123.81,230.41 a21.33,21.33 0 1 0 42.67,0 a21.33,21.33 0 1 0 -42.67,0 Z"/>
    <path fill="#A8E6C8" fill-opacity="0.73" d="M163.95,168.21 a19.67,19.67 0 1 0 39.35,0 a19.67,19.67 0 1 0 -39.35,0 Z"/>
    <path fill="#A8E6C8" fill-opacity="0.64" d="M234.01,142.29 a18.01,18.01 0 1 0 36.03,0 a18.01,18.01 0 1 0 -36.03,0 Z"/>
    <path fill="#A8E6C8" fill-opacity="0.55" d="M305.72,163.37 a16.36,16.36 0 1 0 32.71,0 a16.36,16.36 0 1 0 -32.71,0 Z"/>
    <path fill="#A8E6C8" fill-opacity="0.46" d="M350.11,222.73 a14.7,14.7 0 1 0 29.39,0 a14.7,14.7 0 1 0 -29.39,0 Z"/>
    <path fill="#A8E6C8" fill-opacity="0.37" d="M349.54,295.85 a13.04,13.04 0 1 0 26.07,0 a13.04,13.04 0 1 0 -26.07,0 Z"/>
    <path fill="#A8E6C8" fill-opacity="0.28" d="M304.92,352.49 a11.38,11.38 0 1 0 22.76,0 a11.38,11.38 0 1 0 -22.76,0 Z"/>
  <!-- keyline gap: enlarged pin filled with the same user-space gradient -->
  <path fill="url(#glow)" d="M256,410.07 C233.82,349.13 184.89,323.13 184.89,274.96 A71.11,71.11 0 1 1 327.11,274.96 C327.11,323.13 278.18,349.13 256,410.07 Z"/>
  <path fill="#FFFFFF" fill-rule="evenodd" d="M256,393.48 C236.54,340.02 196.74,314.62 196.74,274.96 A59.26,59.26 0 1 1 315.26,274.96 C315.26,314.62 275.46,340.02 256,393.48 Z M232.3,274.96 a23.7,23.7 0 1 0 47.41,0 a23.7,23.7 0 1 0 -47.41,0 Z"/>
</svg>
